{
	"accessors": [
		{
			"bufferView": 0,
			"byteOffset": 0,
			"componentType": 5126,
			"count": 70,
			"max": [
				0.24,
				0.24,
				0.228253563910837
			],
			"min": [
				-0.24,
				-0.24,
				-0.228253563910837
			],
			"type": "VEC3"
		},
		{
			"bufferView": 1,
			"byteOffset": 0,
			"componentType": 5126,
			"count": 70,
			"type": "VEC3"
		},
		{
			"bufferView": 2,
			"byteOffset": 0,
			"componentType": 5123,
			"count": 360,
			"type": "SCALAR"
		},
		{
			"bufferView": 3,
			"byteOffset": 0,
			"componentType": 5126,
			"count": 24,
			"max": [
				0.0700000002980232,
				0.0,
				0.0700000002980232
			],
			"min": [
				-0.0700000002980232,
				-0.5,
				-0.0700000002980232
			],
			"type": "VEC3"
		},
		{
			"bufferView": 4,
			"byteOffset": 0,
			"componentType": 5126,
			"count": 24,
			"type": "VEC3"
		},
		{
			"bufferView": 5,
			"byteOffset": 0,
			"componentType": 5123,
			"count": 36,
			"type": "SCALAR"
		},
		{
			"bufferView": 6,
			"byteOffset": 0,
			"componentType": 5126,
			"count": 24,
			"max": [
				0.0850000008940697,
				0.0,
				0.0850000008940697
			],
			"min": [
				-0.0850000008940697,
				-0.620000004768372,
				-0.0850000008940697
			],
			"type": "VEC3"
		},
		{
			"bufferView": 7,
			"byteOffset": 0,
			"componentType": 5126,
			"count": 24,
			"type": "VEC3"
		},
		{
			"bufferView": 8,
			"byteOffset": 0,
			"componentType": 5123,
			"count": 36,
			"type": "SCALAR"
		},
		{
			"bufferView": 9,
			"byteOffset": 0,
			"componentType": 5126,
			"count": 24,
			"max": [
				0.275000005960464,
				0.25,
				0.224999994039536
			],
			"min": [
				-0.275000005960464,
				-0.25,
				-0.224999994039536
			],
			"type": "VEC3"
		},
		{
			"bufferView": 10,
			"byteOffset": 0,
			"componentType": 5126,
			"count": 24,
			"type": "VEC3"
		},
		{
			"bufferView": 11,
			"byteOffset": 0,
			"componentType": 5123,
			"count": 36,
			"type": "SCALAR"
		},
		{
			"bufferView": 12,
			"byteOffset": 0,
			"componentType": 5126,
			"count": 3,
			"type": "SCALAR"
		},
		{
			"bufferView": 13,
			"byteOffset": 0,
			"componentType": 5126,
			"count": 3,
			"type": "VEC3"
		},
		{
			"bufferView": 14,
			"byteOffset": 0,
			"componentType": 5126,
			"count": 3,
			"type": "SCALAR"
		},
		{
			"bufferView": 15,
			"byteOffset": 0,
			"componentType": 5126,
			"count": 3,
			"type": "VEC4"
		},
		{
			"bufferView": 16,
			"byteOffset": 0,
			"componentType": 5126,
			"count": 3,
			"type": "SCALAR"
		},
		{
			"bufferView": 17,
			"byteOffset": 0,
			"componentType": 5126,
			"count": 3,
			"type": "VEC4"
		},
		{
			"bufferView": 18,
			"byteOffset": 0,
			"componentType": 5126,
			"count": 5,
			"type": "SCALAR"
		},
		{
			"bufferView": 19,
			"byteOffset": 0,
			"componentType": 5126,
			"count": 5,
			"type": "VEC4"
		},
		{
			"bufferView": 20,
			"byteOffset": 0,
			"componentType": 5126,
			"count": 5,
			"type": "SCALAR"
		},
		{
			"bufferView": 21,
			"byteOffset": 0,
			"componentType": 5126,
			"count": 5,
			"type": "VEC4"
		},
		{
			"bufferView": 22,
			"byteOffset": 0,
			"componentType": 5126,
			"count": 5,
			"type": "SCALAR"
		},
		{
			"bufferView": 23,
			"byteOffset": 0,
			"componentType": 5126,
			"count": 5,
			"type": "VEC4"
		},
		{
			"bufferView": 24,
			"byteOffset": 0,
			"componentType": 5126,
			"count": 5,
			"type": "SCALAR"
		},
		{
			"bufferView": 25,
			"byteOffset": 0,
			"componentType": 5126,
			"count": 5,
			"type": "VEC4"
		},
		{
			"bufferView": 26,
			"byteOffset": 0,
			"componentType": 5126,
			"count": 3,
			"type": "SCALAR"
		},
		{
			"bufferView": 27,
			"byteOffset": 0,
			"componentType": 5126,
			"count": 3,
			"type": "VEC3"
		},
		{
			"bufferView": 28,
			"byteOffset": 0,
			"componentType": 5126,
			"count": 5,
			"type": "SCALAR"
		},
		{
			"bufferView": 29,
			"byteOffset": 0,
			"componentType": 5126,
			"count": 5,
			"type": "VEC4"
		},
		{
			"bufferView": 30,
			"byteOffset": 0,
			"componentType": 5126,
			"count": 5,
			"type": "SCALAR"
		},
		{
			"bufferView": 31,
			"byteOffset": 0,
			"componentType": 5126,
			"count": 5,
			"type": "VEC4"
		},
		{
			"bufferView": 32,
			"byteOffset": 0,
			"componentType": 5126,
			"count": 5,
			"type": "SCALAR"
		},
		{
			"bufferView": 33,
			"byteOffset": 0,
			"componentType": 5126,
			"count": 5,
			"type": "VEC4"
		},
		{
			"bufferView": 34,
			"byteOffset": 0,
			"componentType": 5126,
			"count": 5,
			"type": "SCALAR"
		},
		{
			"bufferView": 35,
			"byteOffset": 0,
			"componentType": 5126,
			"count": 5,
			"type": "VEC4"
		},
		{
			"bufferView": 36,
			"byteOffset": 0,
			"componentType": 5126,
			"count": 3,
			"type": "SCALAR"
		},
		{
			"bufferView": 37,
			"byteOffset": 0,
			"componentType": 5126,
			"count": 3,
			"type": "VEC3"
		}
	],
	"animations": [
		{
			"channels": [
				{
					"sampler": 0,
					"target": {
						"node": 1,
						"path": "translation"
					}
				},
				{
					"sampler": 1,
					"target": {
						"node": 2,
						"path": "rotation"
					}
				},
				{
					"sampler": 2,
					"target": {
						"node": 3,
						"path": "rotation"
					}
				}
			],
			"name": "idle",
			"samplers": [
				{
					"input": 12,
					"interpolation": "LINEAR",
					"output": 13
				},
				{
					"input": 14,
					"interpolation": "LINEAR",
					"output": 15
				},
				{
					"input": 16,
					"interpolation": "LINEAR",
					"output": 17
				}
			]
		},
		{
			"channels": [
				{
					"sampler": 0,
					"target": {
						"node": 6,
						"path": "rotation"
					}
				},
				{
					"sampler": 1,
					"target": {
						"node": 7,
						"path": "rotation"
					}
				},
				{
					"sampler": 2,
					"target": {
						"node": 4,
						"path": "rotation"
					}
				},
				{
					"sampler": 3,
					"target": {
						"node": 5,
						"path": "rotation"
					}
				},
				{
					"sampler": 4,
					"target": {
						"node": 1,
						"path": "translation"
					}
				}
			],
			"name": "walk",
			"samplers": [
				{
					"input": 18,
					"interpolation": "LINEAR",
					"output": 19
				},
				{
					"input": 20,
					"interpolation": "LINEAR",
					"output": 21
				},
				{
					"input": 22,
					"interpolation": "LINEAR",
					"output": 23
				},
				{
					"input": 24,
					"interpolation": "LINEAR",
					"output": 25
				},
				{
					"input": 26,
					"interpolation": "LINEAR",
					"output": 27
				}
			]
		},
		{
			"channels": [
				{
					"sampler": 0,
					"target": {
						"node": 6,
						"path": "rotation"
					}
				},
				{
					"sampler": 1,
					"target": {
						"node": 7,
						"path": "rotation"
					}
				},
				{
					"sampler": 2,
					"target": {
						"node": 4,
						"path": "rotation"
					}
				},
				{
					"sampler": 3,
					"target": {
						"node": 5,
						"path": "rotation"
					}
				},
				{
					"sampler": 4,
					"target": {
						"node": 1,
						"path": "translation"
					}
				}
			],
			"name": "run",
			"samplers": [
				{
					"input": 28,
					"interpolation": "LINEAR",
					"output": 29
				},
				{
					"input": 30,
					"interpolation": "LINEAR",
					"output": 31
				},
				{
					"input": 32,
					"interpolation": "LINEAR",
					"output": 33
				},
				{
					"input": 34,
					"interpolation": "LINEAR",
					"output": 35
				},
				{
					"input": 36,
					"interpolation": "LINEAR",
					"output": 37
				}
			]
		}
	],
	"asset": {
		"generator": "NuwaMirrorTool",
		"version": "2.0"
	},
	"bufferViews": [
		{
			"buffer": 0,
			"byteLength": 840,
			"byteOffset": 0
		},
		{
			"buffer": 0,
			"byteLength": 840,
			"byteOffset": 840
		},
		{
			"buffer": 0,
			"byteLength": 720,
			"byteOffset": 1680
		},
		{
			"buffer": 0,
			"byteLength": 288,
			"byteOffset": 2400
		},
		{
			"buffer": 0,
			"byteLength": 288,
			"byteOffset": 2688
		},
		{
			"buffer": 0,
			"byteLength": 72,
			"byteOffset": 2976
		},
		{
			"buffer": 0,
			"byteLength": 288,
			"byteOffset": 3048
		},
		{
			"buffer": 0,
			"byteLength": 288,
			"byteOffset": 3336
		},
		{
			"buffer": 0,
			"byteLength": 72,
			"byteOffset": 3624
		},
		{
			"buffer": 0,
			"byteLength": 288,
			"byteOffset": 3696
		},
		{
			"buffer": 0,
			"byteLength": 288,
			"byteOffset": 3984
		},
		{
			"buffer": 0,
			"byteLength": 72,
			"byteOffset": 4272
		},
		{
			"buffer": 0,
			"byteLength": 12,
			"byteOffset": 4344
		},
		{
			"buffer": 0,
			"byteLength": 36,
			"byteOffset": 4356
		},
		{
			"buffer": 0,
			"byteLength": 12,
			"byteOffset": 4392
		},
		{
			"buffer": 0,
			"byteLength": 48,
			"byteOffset": 4404
		},
		{
			"buffer": 0,
			"byteLength": 12,
			"byteOffset": 4452
		},
		{
			"buffer": 0,
			"byteLength": 48,
			"byteOffset": 4464
		},
		{
			"buffer": 0,
			"byteLength": 20,
			"byteOffset": 4512
		},
		{
			"buffer": 0,
			"byteLength": 80,
			"byteOffset": 4532
		},
		{
			"buffer": 0,
			"byteLength": 20,
			"byteOffset": 4612
		},
		{
			"buffer": 0,
			"byteLength": 80,
			"byteOffset": 4632
		},
		{
			"buffer": 0,
			"byteLength": 20,
			"byteOffset": 4712
		},
		{
			"buffer": 0,
			"byteLength": 80,
			"byteOffset": 4732
		},
		{
			"buffer": 0,
			"byteLength": 20,
			"byteOffset": 4812
		},
		{
			"buffer": 0,
			"byteLength": 80,
			"byteOffset": 4832
		},
		{
			"buffer": 0,
			"byteLength": 12,
			"byteOffset": 4912
		},
		{
			"buffer": 0,
			"byteLength": 36,
			"byteOffset": 4924
		},
		{
			"buffer": 0,
			"byteLength": 20,
			"byteOffset": 4960
		},
		{
			"buffer": 0,
			"byteLength": 80,
			"byteOffset": 4980
		},
		{
			"buffer": 0,
			"byteLength": 20,
			"byteOffset": 5060
		},
		{
			"buffer": 0,
			"byteLength": 80,
			"byteOffset": 5080
		},
		{
			"buffer": 0,
			"byteLength": 20,
			"byteOffset": 5160
		},
		{
			"buffer": 0,
			"byteLength": 80,
			"byteOffset": 5180
		},
		{
			"buffer": 0,
			"byteLength": 20,
			"byteOffset": 5260
		},
		{
			"buffer": 0,
			"byteLength": 80,
			"byteOffset": 5280
		},
		{
			"buffer": 0,
			"byteLength": 12,
			"byteOffset": 5360
		},
		{
			"buffer": 0,
			"byteLength": 36,
			"byteOffset": 5372
		}
	],
	"buffers": [
		{
			"byteLength": 5408,
			"uri": "data:application/octet-stream;base64,"
		}
	],
	"materials": [
		{
			"emissiveFactor": [
				0.08,
				0.2,
				0.28
			],
			"name": "Crystal",
			"pbrMetallicRoughness": {
				"baseColorFactor": [
					0.3,
					0.75,
					0.95,
					1.0
				],
				"metallicFactor": 0.5,
				"roughnessFactor": 0.4
			}
		}
	],
	"meshes": [
		{
			"name": "Part",
			"primitives": [
				{
					"attributes": {
						"NORMAL": 1,
						"POSITION": 0
					},
					"indices": 2,
					"material": 0
				}
			]
		},
		{
			"name": "Part",
			"primitives": [
				{
					"attributes": {
						"NORMAL": 4,
						"POSITION": 3
					},
					"indices": 5,
					"material": 0
				}
			]
		},
		{
			"name": "Part",
			"primitives": [
				{
					"attributes": {
						"NORMAL": 7,
						"POSITION": 6
					},
					"indices": 8,
					"material": 0
				}
			]
		},
		{
			"name": "Part",
			"primitives": [
				{
					"attributes": {
						"NORMAL": 10,
						"POSITION": 9
					},
					"indices": 11,
					"material": 0
				}
			]
		}
	],
	"nodes": [
		{
			"children": [
				1
			],
			"name": "Root"
		},
		{
			"children": [
				2,
				6,
				7
			],
			"name": "Hips",
			"translation": [
				0.0,
				0.95,
				0.0
			]
		},
		{
			"children": [
				3,
				4,
				5,
				8
			],
			"name": "Spine",
			"translation": [
				0.0,
				0.25,
				0.0
			]
		},
		{
			"mesh": 0,
			"name": "Head",
			"translation": [
				0.0,
				0.3,
				0.0
			]
		},
		{
			"mesh": 1,
			"name": "ArmL",
			"translation": [
				-0.4,
				0.18,
				0.0
			]
		},
		{
			"mesh": 1,
			"name": "ArmR",
			"translation": [
				0.4,
				0.18,
				0.0
			]
		},
		{
			"mesh": 2,
			"name": "LegL",
			"translation": [
				-0.16,
				-0.08,
				0.0
			]
		},
		{
			"mesh": 2,
			"name": "LegR",
			"translation": [
				0.16,
				-0.08,
				0.0
			]
		},
		{
			"mesh": 3,
			"name": "Torso",
			"translation": [
				0.0,
				-0.08,
				0.0
			]
		}
	],
	"scene": 0,
	"scenes": [
		{
			"nodes": [
				0
			]
		}
	]
}